<svg width="28" height="28" viewBox="0 0 28 28" fill="none" xmlns="http://www.w3.org/2000/svg">
<path d="M28 14H14C14 10.2212 17.134 4 21 4C24.866 4 28 10.2212 28 14Z" fill="#934A3D"/>
<path d="M14 28L14 14C17.7788 14 24 17.134 24 21C24 24.866 17.7788 28 14 28Z" fill="#934A3D"/>
<path d="M-7.94466e-08 14L14 14C14 17.7788 10.866 24 7 24C3.13401 24 -4.09799e-07 17.7788 -7.94466e-08 14Z" fill="#934A3D"/>
<path d="M14 -1.39079e-06L14 14C10.2212 14 4 10.866 4 7C4 3.13401 10.2212 -1.22561e-06 14 -1.39079e-06Z" fill="#934A3D"/>
</svg>
